<svg width="145" height="39" viewBox="0 0 145 39" fill="none" xmlns="http://www.w3.org/2000/svg">
<mask id="mask0_19685_72731" style="mask-type:luminance" maskUnits="userSpaceOnUse" x="0" y="0" width="31" height="39">
<path d="M28.7238 7.70877L16.3253 0.546043C15.9273 0.313165 15.4746 0.190422 15.0135 0.190422C14.5524 0.190422 14.0996 0.313165 13.7016 0.546043L1.29728 7.70877C0.90345 7.93954 0.576637 8.26905 0.349126 8.66477C0.121614 9.06048 0.00127641 9.50871 0 9.96516L0 24.2994C0.000545008 24.7552 0.120627 25.2029 0.348261 25.5978C0.575895 25.9927 0.903121 26.321 1.29728 26.5499L7.50673 30.1386V37.4558C7.50786 37.5918 7.54449 37.7252 7.61298 37.8427C7.68148 37.9603 7.77947 38.0579 7.89727 38.1259C8.01506 38.1939 8.14857 38.23 8.2846 38.2306C8.42062 38.2312 8.55444 38.1962 8.67282 38.1292L28.7325 26.5558C29.1264 26.3267 29.4532 25.9983 29.6803 25.6033C29.9074 25.2084 30.027 24.7608 30.0269 24.3052V9.96225C30.0236 9.50487 29.9009 9.05629 29.6707 8.66101C29.4406 8.26572 29.1112 7.93746 28.7151 7.70877H28.7238Z" fill="white"/>
</mask>
<g mask="url(#mask0_19685_72731)">
<path d="M30.0269 8.46381L15.0164 17.1308L0 8.46381V25.7978L7.50673 30.1269V38.7968L30.0269 25.7978V8.46381Z" fill="#EF6C00"/>
<path d="M15.0164 17.1308L0 8.46381L15.0164 -0.203178L30.0269 8.46381L15.0164 17.1308Z" fill="#FF9800"/>
<path d="M14.7482 16.8655L0.0962027 8.40551L0 8.46381L15.0164 17.1308L30.0269 8.46381L29.6742 8.25391L14.7482 16.8655Z" fill="#FF9800"/>
<path d="M15.0164 17.2387V17.1308L0.0962027 8.51337L0 8.57168L15.0164 17.2387Z" fill="#FF9800"/>
</g>
<path d="M141.084 25.113H138.848L135.941 16.1632L133.058 25.113H130.845L127.082 13.4521H129.37L131.965 22.2619H131.988L134.868 13.4521H137.128L140.011 22.2619H140.034L142.617 13.4521H144.856L141.084 25.113ZM116.462 14.8397C117.608 13.7039 119.157 13.0667 120.77 13.0667C122.384 13.0667 123.933 13.7039 125.079 14.8397C125.639 15.4306 126.076 16.1262 126.366 16.8867C126.655 17.6472 126.792 18.4575 126.767 19.2709C126.791 20.0851 126.654 20.8962 126.363 21.6572C126.073 22.4182 125.634 23.1141 125.073 23.7049C123.927 24.8407 122.378 25.4779 120.765 25.4779C119.151 25.4779 117.602 24.8407 116.456 23.7049C115.895 23.1143 115.457 22.4183 115.167 21.6572C114.876 20.8961 114.74 20.085 114.765 19.2709C114.741 18.4568 114.878 17.646 115.17 16.8854C115.461 16.1248 115.9 15.4295 116.462 14.8397ZM118.091 22.3406C118.763 23.0505 119.689 23.4649 120.665 23.4928C121.642 23.5207 122.59 23.1598 123.301 22.4893C123.353 22.4426 123.403 22.3902 123.452 22.3406C124.205 21.5632 124.582 20.5429 124.584 19.2796C124.586 18.0163 124.208 16.997 123.452 16.2215C123.12 15.8695 122.722 15.5863 122.281 15.3881C121.839 15.19 121.363 15.0807 120.879 15.0666C120.395 15.0526 119.914 15.1339 119.461 15.3061C119.009 15.4782 118.595 15.7378 118.243 16.0699C118.19 16.1195 118.141 16.1691 118.091 16.2215C117.708 16.6299 117.411 17.1109 117.216 17.6361C117.022 18.1613 116.935 18.7202 116.96 19.2796C116.96 20.5507 117.337 21.571 118.091 22.3406ZM113.1 25.113H110.911V8.06762H113.1V25.113ZM107.503 7.91312C108.101 7.8962 108.696 8.00134 109.252 8.22213L108.491 10.1025C108.176 9.96422 107.833 9.89943 107.489 9.91297C106.972 9.89376 106.469 10.078 106.086 10.426C105.895 10.6203 105.748 10.8532 105.654 11.1091C105.56 11.365 105.521 11.638 105.541 11.9099V13.3879H108.591V15.3878H105.541V25.0634H103.352V15.3965H101.168V13.3967H103.358V11.8487C103.334 11.3186 103.424 10.7897 103.621 10.297C103.818 9.80443 104.118 9.35945 104.501 8.99175C105.322 8.25579 106.399 7.8707 107.5 7.91895L107.503 7.91312ZM93.5101 30.582C92.1283 30.582 91.002 30.237 90.1313 29.5471C89.3151 28.9271 88.6675 28.1122 88.2481 27.177L90.2479 26.3432C90.4805 26.9907 90.9096 27.5492 91.4752 27.9408C92.0701 28.3649 92.7855 28.5867 93.5159 28.5734C94.7228 28.5734 95.6722 28.2119 96.3641 27.4889C97.056 26.7659 97.3941 25.7874 97.3786 24.5533V23.4513H97.2853C96.8691 24.0521 96.3127 24.5424 95.6644 24.8798C94.9409 25.2722 94.129 25.473 93.306 25.4628C92.5647 25.4647 91.8318 25.3063 91.1575 24.9983C90.4832 24.6904 89.8836 24.2402 89.3996 23.6787C88.2928 22.4623 87.704 20.8621 87.7583 19.2184C87.7108 17.5836 88.2992 15.9942 89.3996 14.7843C89.8821 14.2209 90.4815 13.7693 91.156 13.4607C91.8306 13.1521 92.5642 12.994 93.306 12.9973C94.1289 12.9886 94.9404 13.1892 95.6644 13.5803C96.314 13.913 96.8725 14.3994 97.2911 14.9971H97.3786V13.3792H99.4746V24.4571C99.4746 26.4569 98.8916 27.9767 97.7255 29.0165C96.5649 30.0647 95.0473 30.629 93.4838 30.5936L93.5101 30.582ZM93.6762 23.4397C94.1694 23.4449 94.6581 23.3458 95.1103 23.1488C95.5625 22.9519 95.9679 22.6616 96.2999 22.2969C97.019 21.5409 97.3786 20.5196 97.3786 19.233C97.3786 17.9464 97.0181 16.9231 96.297 16.1632C95.6527 15.4715 94.7606 15.0632 93.816 15.0276C92.8713 14.9921 91.951 15.3323 91.2566 15.9737L91.0584 16.172C90.3276 16.9494 89.9622 17.9697 89.9622 19.233C89.9622 20.4962 90.3237 21.5137 91.0467 22.2852C91.3758 22.6552 91.7801 22.9506 92.2326 23.1517C92.6851 23.3528 93.1753 23.4549 93.6704 23.4513L93.6762 23.4397ZM75.9079 14.7814C77.0544 13.6447 78.6036 13.007 80.2181 13.007C81.8326 13.007 83.3817 13.6447 84.5282 14.7814C85.0877 15.373 85.5248 16.0692 85.8144 16.8301C86.1041 17.591 86.2406 18.4017 86.2162 19.2155C86.2406 20.0293 86.1041 20.8399 85.8144 21.6009C85.5248 22.3618 85.0877 23.058 84.5282 23.6496C83.3788 24.7806 81.8307 25.4145 80.2181 25.4145C78.6054 25.4145 77.0574 24.7806 75.9079 23.6496C75.3482 23.0582 74.9109 22.362 74.6213 21.601C74.3316 20.8401 74.1952 20.0293 74.22 19.2155C74.1753 17.576 74.7786 15.9849 75.8992 14.7872L75.9079 14.7814ZM77.5317 22.2852C77.8638 22.6373 78.2619 22.9205 78.7035 23.1186C79.145 23.3168 79.6213 23.426 80.105 23.4401C80.5888 23.4542 81.0706 23.3728 81.5229 23.2007C81.9752 23.0285 82.3892 22.769 82.7412 22.4368C82.7908 22.3873 82.8432 22.3377 82.8899 22.2852C83.6439 21.5078 84.021 20.4885 84.021 19.2271C84.021 17.9658 83.6439 16.9445 82.8899 16.1632C82.558 15.8113 82.1601 15.5281 81.7188 15.33C81.2775 15.1319 80.8015 15.0227 80.318 15.0086C79.8345 14.9945 79.3529 15.0759 78.9008 15.248C78.4487 15.4201 78.035 15.6796 77.6833 16.0116C77.6308 16.0612 77.5812 16.1108 77.5317 16.1632C76.7698 16.9406 76.3889 17.9629 76.3889 19.2301C76.3889 20.4972 76.7718 21.5156 77.5375 22.2852H77.5317ZM72.3338 25.0605H70.1445V8.01515H72.3367L72.3338 25.0605ZM62.2763 25.4395C61.1435 25.4777 60.0366 25.0956 59.1686 24.3667C58.76 24.0198 58.4353 23.585 58.2187 23.0948C58.0021 22.6045 57.8993 22.0716 57.918 21.536C57.8963 20.9543 58.0201 20.3764 58.2782 19.8546C58.5363 19.3328 58.9205 18.8837 59.396 18.5479C60.4597 17.8005 61.7379 17.4199 63.0371 17.4634C64.1377 17.4199 65.2305 17.6661 66.206 18.1777V17.8482C66.2225 17.4613 66.1526 17.0755 66.0013 16.719C65.85 16.3625 65.6212 16.0441 65.3314 15.7872C64.7325 15.2657 63.9592 14.9889 63.1654 15.0117C62.5589 15.0036 61.9616 15.1597 61.4367 15.4636C60.9481 15.7357 60.5735 16.1744 60.3814 16.6996L58.3815 15.8484C58.717 15.0615 59.2715 14.3876 59.9791 13.9068C60.772 13.3238 61.8195 13.0264 63.1217 13.0148C64.4804 12.9674 65.8069 13.4349 66.8357 14.3237C67.821 15.1944 68.3137 16.4246 68.3137 18.0144V25.0634H66.2147V23.4513H66.1185C65.2401 24.7826 63.9593 25.4482 62.2763 25.4482V25.4395ZM62.6319 23.4513C63.5549 23.4421 64.4385 23.0766 65.0982 22.431C65.4452 22.1361 65.724 21.7694 65.9153 21.3561C66.1066 20.9428 66.2058 20.493 66.206 20.0376C65.586 19.5303 64.657 19.2767 63.419 19.2767C62.3559 19.2767 61.5543 19.507 61.014 19.9676C60.7652 20.1583 60.563 20.403 60.4226 20.6833C60.2822 20.9636 60.2073 21.2721 60.2035 21.5856C60.1994 21.8552 60.2648 22.1213 60.3935 22.3582C60.5222 22.5952 60.7098 22.7949 60.9382 22.9382C61.437 23.2756 62.0269 23.4526 62.629 23.4455L62.6319 23.4513ZM55.8423 10.4669C55.5894 10.7205 55.2563 10.8786 54.8998 10.9142C54.5434 10.9497 54.1856 10.8605 53.8876 10.6618C53.5895 10.4631 53.3696 10.1672 53.2653 9.82452C53.161 9.48182 53.1788 9.11355 53.3156 8.78249C53.4524 8.45143 53.6999 8.17808 54.0157 8.00903C54.3315 7.83998 54.6962 7.7857 55.0476 7.85543C55.3989 7.92517 55.7152 8.11461 55.9426 8.39146C56.1699 8.66831 56.2942 9.01543 56.2942 9.37365C56.2979 9.57712 56.2597 9.77916 56.1819 9.96723C56.1042 10.1553 55.9886 10.3254 55.8423 10.4669ZM55.8423 25.0634H53.6501V13.4025H55.8336L55.8423 25.0634ZM38.0273 25.0634V8.01515H43.2427C45.8606 8.01515 47.9557 8.80421 49.5279 10.3823C51.1002 11.9604 51.8912 14.0128 51.9009 16.5393C51.9009 19.0658 51.1148 21.1172 49.5425 22.6934C47.9702 24.2695 45.8703 25.0596 43.2427 25.0634H38.0273ZM40.2196 22.9703H43.2427C45.2134 22.9703 46.7682 22.4067 47.9071 21.2795C49.046 20.1522 49.6212 18.5732 49.6329 16.5422C49.6329 14.5288 49.0576 12.9526 47.9071 11.8137C46.7565 10.6748 45.2017 10.1083 43.2427 10.1141H40.2196V22.9703Z" fill="#757575"/>
</svg>
