<svg width="36" height="39" viewBox="0 0 36 39" fill="none" xmlns="http://www.w3.org/2000/svg">
<path fill-rule="evenodd" clip-rule="evenodd" d="M29.5186 32.8883L11.2746 27.2124L11.2549 22.0435L33.4634 24.4889L29.5186 32.8883Z" fill="#2E73B8"/>
<path fill-rule="evenodd" clip-rule="evenodd" d="M33.3546 18.3857L15.3721 18.649V22.7794L33.3546 24.4791V18.3857Z" fill="#19486F"/>
<path fill-rule="evenodd" clip-rule="evenodd" d="M6.5264 5.50816L24.7704 11.184L24.7458 16.3779L2.58691 13.9079L6.5264 5.50816Z" fill="#2E73B8"/>
<path fill-rule="evenodd" clip-rule="evenodd" d="M2.69531 20.0058L20.6729 19.7474V15.6171L2.69531 13.9173V20.0058Z" fill="#99BCE3"/>
<path fill-rule="evenodd" clip-rule="evenodd" d="M13.6114 19.6281L3.36523 19.7273V26.9884L13.6114 25.5422V19.6281Z" fill="#5294CF"/>
<path fill-rule="evenodd" clip-rule="evenodd" d="M32.5955 16.5863L22.4629 17.0682V12.814L32.5955 11.3727V16.5863Z" fill="#205B99"/>
<path fill-rule="evenodd" clip-rule="evenodd" d="M12.9756 1.32816H23.0492V9.43423H12.9756V1.32816ZM13.01 29.1853H23.0492V37.0929H13.01V29.1853Z" fill="#2E73B8"/>
<path fill-rule="evenodd" clip-rule="evenodd" d="M34.7647 7.25258L23.0491 1.34291L17.9951 6.95395L32.5952 11.3722V16.5863L17.9951 15.1101V23.3158L28.6557 22.2322V19.2203L30.8007 22.0185L32.5956 24.3544L32.6399 24.4089L32.5956 24.4737L30.8056 27.5352L28.6557 31.2082V28.1866L17.9951 31.3973L23.1135 37.0285L34.7647 31.1537V26.3822V12.0187V7.25258Z" fill="#5294CF"/>
<path fill-rule="evenodd" clip-rule="evenodd" d="M3.36559 21.8298L17.9951 23.3158V15.1101L7.44321 16.1786V19.2302L5.24413 16.3972L3.36559 13.9768L5.25396 10.8107L7.44321 7.13277V10.1495L17.9951 6.9687V6.95394L12.9756 1.32816L1.23535 7.24766V12.0191V26.3429V31.159L13.01 37.0929L17.9951 31.3973L3.36559 26.9889V21.8298Z" fill="#205B99"/>
<path fill-rule="evenodd" clip-rule="evenodd" d="M32.5953 11.3727L22.4628 12.814L7.44336 10.15L17.9953 6.9544L32.5953 11.3727Z" fill="#19486F"/>
<path fill-rule="evenodd" clip-rule="evenodd" d="M28.6554 28.1861L13.6114 25.5422L3.36523 26.9884L17.9948 31.3969L28.6554 28.1861Z" fill="#99BCE3"/>
</svg>
