<svg width="330" height="80" viewBox="0 0 330 80" fill="none" xmlns="http://www.w3.org/2000/svg">
<path fill-rule="evenodd" clip-rule="evenodd" d="M297.321 40.2608C297.746 40.4297 298.202 40.5105 298.66 40.4983C300.354 40.6134 302.142 39.0723 302.126 37.0507C302.111 35.029 300.345 33.6123 298.66 33.6294C297.014 33.6497 295.216 34.8735 295.195 37.0507C295.184 37.5069 295.265 37.9607 295.435 38.3845C295.605 38.8084 295.86 39.1933 296.184 39.5158C296.508 39.8384 296.895 40.0919 297.321 40.2608ZM49.4574 62.3676C49.8836 62.5368 50.34 62.6177 50.7987 62.6055C52.4896 62.7206 54.2837 61.1749 54.2681 59.1532C54.2524 57.1316 52.4865 55.7149 50.8002 55.732C49.1514 55.7476 47.3511 56.9761 47.3292 59.1532C47.3174 59.6101 47.3991 60.0645 47.5693 60.4889C47.7395 60.9133 47.9947 61.2987 48.3193 61.6217C48.6439 61.9447 49.0311 62.1985 49.4574 62.3676Z" fill="#FFCF00"/>
<path fill-rule="evenodd" clip-rule="evenodd" d="M0.97316 29.5458C1.40374 26.2559 2.3181 23.047 3.68686 20.0223C4.86221 17.4165 6.36993 14.9725 8.17273 12.7507C13.3149 6.35799 20.6015 2.02918 28.6925 0.560276C30.0186 0.325948 31.3567 0.164492 32.7006 0.0766402C33.7077 0.00821584 34.7133 -0.0182214 35.7172 0.0128806C39.3558 0.112168 42.9556 0.784516 46.3831 2.00496C48.8273 2.87603 51.1628 4.02396 53.3438 5.42618C54.8456 6.39941 56.2706 7.48543 57.6064 8.67478C63.6275 14.0187 67.5442 21.3211 68.6563 29.2767C68.7875 30.1833 68.8656 31.0962 68.9218 32.0137C68.9733 32.827 69.0155 33.6403 68.9967 34.4552C68.8921 38.9883 67.999 43.3535 66.1862 47.518C64.1086 52.2938 60.9567 56.53 56.974 59.8997C56.855 59.9997 56.7765 60.1393 56.7529 60.2925C56.7294 60.4458 56.7624 60.6024 56.846 60.7332L62.7793 69.9612L68.4003 78.7195C68.4396 78.7746 68.4761 78.8317 68.5096 78.8906C68.636 79.1301 68.6048 79.2016 68.3534 79.2218C68.2338 79.228 68.1139 79.228 67.9943 79.2218C67.2611 79.2218 66.5277 79.2212 65.7943 79.2206H65.7941H65.7939C63.5929 79.2189 61.3913 79.2171 59.1896 79.2311C58.99 79.2491 58.7895 79.2081 58.6132 79.1133C58.4368 79.0184 58.2925 78.8739 58.1981 78.6977C55.346 74.2242 52.4835 69.757 49.6105 65.2959C49.5962 65.2729 49.5808 65.2505 49.5655 65.228L49.5654 65.2278C49.5423 65.1941 49.5193 65.1603 49.4996 65.1248C49.3716 64.8807 49.1967 64.8558 48.9485 64.9693L48.8254 65.022L48.8248 65.0222C48.1609 65.3062 47.5009 65.5884 46.8187 65.8417C44.3724 66.7558 41.8281 67.3851 39.2366 67.7172C38.7478 67.7789 38.2589 67.8185 37.7718 67.858H37.7717C37.3254 67.8942 36.8806 67.9303 36.4386 67.9831H36.2825C35.7828 67.9831 35.7157 67.9349 35.7094 67.4435C35.7049 67.0228 35.706 66.6023 35.707 66.182C35.7086 65.5816 35.7101 64.9816 35.6954 64.3815C35.6911 64.1938 35.6862 64.0059 35.6813 63.8181L35.6813 63.8173L35.6813 63.8165L35.6812 63.8155C35.6556 62.834 35.6299 61.8512 35.6954 60.8716C35.703 60.7614 35.7023 60.6503 35.7016 60.5389V60.5389V60.5389C35.7011 60.446 35.7005 60.3531 35.7047 60.2605C35.7121 60.1489 35.7588 60.0435 35.8364 59.9627C35.9141 59.882 36.0178 59.831 36.1294 59.8188C36.3667 59.794 36.6041 59.7701 36.8414 59.7462C37.1974 59.7104 37.5534 59.6745 37.9094 59.6353C40.2338 59.3605 42.509 58.767 44.6702 57.8719C44.7198 57.852 44.7716 57.8239 44.824 57.7954C44.9681 57.7172 45.1168 57.6365 45.237 57.7164C45.3939 57.8243 45.3369 57.9976 45.2832 58.161L45.2832 58.1611C45.2642 58.2189 45.2456 58.2755 45.237 58.3275C44.7686 60.7675 46.3113 63.9834 49.548 64.6256C52.8519 65.2803 55.8529 63.0861 56.351 60.0226C56.8538 56.9326 54.8802 54.5035 52.2914 53.768C52.2477 53.7554 52.2019 53.7472 52.1559 53.739C52.0195 53.7146 51.8813 53.6898 51.7902 53.5502C51.8228 53.3865 51.9412 53.2911 52.0569 53.1978L52.057 53.1977C52.0853 53.1749 52.1133 53.1523 52.1399 53.1288C56.743 48.9853 59.6944 43.3298 60.4544 37.1968C61.1226 31.8613 60.1655 26.7544 57.6439 21.8916C56.9491 20.5513 56.1227 19.2829 55.1768 18.1049C51.239 13.2063 46.2743 10.0873 40.2827 8.74787C34.6876 7.51245 28.8392 8.15716 23.6508 10.5813C18.868 12.8113 14.8839 16.4441 12.2323 20.9927C10.6308 23.726 9.55241 26.7316 9.0518 29.8568C8.99341 30.2162 8.94793 30.5773 8.90241 30.9388C8.87368 31.167 8.84493 31.3953 8.81291 31.6234C8.75201 32.0774 8.72703 32.1086 8.27422 32.1117C7.52371 32.1168 6.77321 32.1151 6.0227 32.1134C5.64744 32.1125 5.27219 32.1117 4.89694 32.1117H1.18707C1.1343 32.1118 1.08207 32.1011 1.03368 32.0801C0.985302 32.0591 0.941824 32.0284 0.906007 31.9898C0.870189 31.9512 0.842811 31.9056 0.825612 31.8559C0.808412 31.8062 0.801766 31.7535 0.806092 31.7011L0.97316 29.5458ZM104.945 78.2203V63.2572C104.937 58.4395 104.938 53.6218 104.948 48.8041C104.951 47.2717 104.597 45.7594 103.914 44.3861C103.437 43.4672 102.906 42.5767 102.325 41.7191C99.8535 37.8541 97.3802 33.9923 94.9049 30.1336C92.9115 27.0348 90.9187 23.935 88.9263 20.8341C86.3292 16.7909 83.7326 12.7476 81.1365 8.70436C80.7351 8.07805 80.3333 7.45192 79.9315 6.82578L79.923 6.81263L79.9205 6.80865C78.6568 4.83951 77.3931 2.8702 76.1401 0.894655C76.0539 0.73232 75.922 0.598595 75.7606 0.509912C75.5991 0.421229 75.4152 0.381452 75.2314 0.39547C72.5052 0.40791 69.779 0.407911 67.0528 0.407911C67.0081 0.407911 66.9588 0.403181 66.9085 0.398341C66.7408 0.382228 66.5603 0.36489 66.4907 0.516767C66.4212 0.668316 66.5273 0.806129 66.6277 0.936531C66.6582 0.976068 66.6881 1.01492 66.7124 1.05328C67.6878 2.58557 68.6641 4.11786 69.6416 5.65015L79.2613 20.7346C82.4674 25.7596 85.6739 30.7852 88.881 35.8113C91.4167 39.8099 93.967 43.8014 96.5319 47.7855C96.8088 48.2096 96.9503 48.7073 96.9378 49.2131V78.0695C96.9378 78.1317 96.9364 78.1939 96.935 78.2561C96.9323 78.3805 96.9295 78.5049 96.9378 78.6293C96.9597 78.9544 97.0206 79.0088 97.3329 79.0352H97.7419H104.131C104.945 79.0352 104.945 79.0337 104.945 78.2203ZM225.684 78.4147C225.834 78.2838 225.981 78.1554 226.126 78.029L226.126 78.0284C226.457 77.7389 226.776 77.4599 227.099 77.1861L227.38 76.9464C229.733 74.9428 232.087 72.9388 234.268 70.7465C234.444 70.5602 234.68 70.4422 234.935 70.4137C236.239 70.2643 237.528 70.0041 238.787 69.6361C241.463 68.8543 243.926 67.4765 245.988 65.6069C247.629 64.1453 249.049 62.4551 250.204 60.5886C251.662 58.1646 252.618 55.4742 253.015 52.6762C253.222 51.3008 253.326 49.9119 253.327 48.521V1.38134C253.327 1.28617 253.325 1.20023 253.324 1.12262V1.12155V1.12057V1.11968V1.11886V1.11812V1.11744V1.11682C253.313 0.449206 253.312 0.403509 254.306 0.406289H261.107H261.516C261.947 0.429616 262.013 0.494931 262.032 0.922583V1.37978V48.9767C262.032 52.527 261.546 56.0135 260.4 59.3958C259.258 62.8212 257.443 65.9858 255.06 68.7046C253.303 70.7029 251.381 72.524 249.172 74.0277C246.718 75.6957 244.014 76.9664 241.16 77.7926C239.243 78.34 237.279 78.7086 235.293 78.8936C233.528 79.0563 231.754 79.0885 229.984 78.9901C229.073 78.9456 228.166 78.8363 227.261 78.7272C226.867 78.6798 226.474 78.6324 226.081 78.5904C225.93 78.5864 225.788 78.5232 225.684 78.4147ZM142.249 39.7068V1.38142L142.249 1.23719C142.248 0.82204 142.247 0.617406 142.35 0.517099C142.449 0.419597 142.645 0.42067 143.031 0.422787C143.093 0.423122 143.159 0.423483 143.23 0.423483H171.707C175.14 0.389999 178.548 1.01457 181.745 2.26316C184.202 3.24435 186.477 4.62718 188.476 6.35463C190.738 8.29072 192.593 10.5534 193.925 13.2111C195.086 15.5432 195.815 18.0643 196.078 20.6538C196.21 21.782 196.27 22.9174 196.259 24.0532C196.153 29.3156 194.6 34.068 191.165 38.1284C187.925 41.9586 183.89 44.5852 179.019 45.9039L179.015 45.9049C178.324 46.092 178.32 46.0931 178.697 46.7188L192.693 69.9333C194.404 72.7687 196.116 75.6031 197.832 78.4365C197.858 78.4801 197.885 78.5221 197.91 78.5672C198.136 78.9824 198.097 79.0617 197.613 79.0617C194.767 79.0617 191.922 79.0617 189.076 79.071C188.713 79.071 188.527 78.9155 188.354 78.6216C186.306 75.2004 184.252 71.7792 182.193 68.3579C178.745 62.6227 175.298 56.887 171.852 51.1508C171.673 50.8538 171.494 50.5572 171.315 50.2606L171.314 50.2597L171.314 50.2589C170.737 49.3061 170.161 48.3532 169.611 47.3859C169.361 46.9474 169.074 46.7841 168.56 46.7872C165.508 46.8046 162.455 46.8021 159.401 46.7996H159.4C158.636 46.799 157.873 46.7984 157.109 46.7981C156.694 46.7981 156.485 46.7981 156.38 46.6938C156.275 46.5889 156.274 46.3781 156.272 45.9552V45.9505C156.272 44.4234 156.272 42.8963 156.252 41.3692C156.252 41.0986 156.233 40.828 156.215 40.5562V40.556V40.5559V40.5557V40.5556V40.5554V40.5553V40.5551C156.19 40.2026 156.166 39.8481 156.182 39.4891V39.4888C156.182 39.3536 156.182 39.2184 156.204 39.0832C156.207 39.0143 156.238 38.9495 156.288 38.9025C156.339 38.8555 156.406 38.83 156.475 38.8313C156.663 38.8204 156.85 38.8189 157.037 38.8189C158.446 38.8189 159.855 38.8207 161.264 38.8225L161.273 38.8226C164.701 38.8271 168.13 38.8316 171.558 38.8095C174.291 38.7924 176.953 38.3539 179.457 37.1938C180.741 36.5984 181.932 35.8246 182.997 34.8953C184.031 34.0053 184.941 32.9818 185.703 31.852C186.837 30.1876 187.563 28.2821 187.825 26.2879C188.181 23.5649 188.089 20.8699 187.138 18.2542C186.319 16.028 184.933 14.0521 183.116 12.5206C181.23 10.8835 178.983 9.71152 176.558 9.09938C175.55 8.84784 174.524 8.67368 173.49 8.57842C172.593 8.49112 171.697 8.49197 170.801 8.49283C170.659 8.49296 170.518 8.4931 170.376 8.49289H151.204L151.119 8.49282C150.732 8.49238 150.542 8.49216 150.449 8.58694C150.359 8.67823 150.36 8.85766 150.361 9.20992L150.361 9.32175V78.0338C150.361 78.1122 150.361 78.1846 150.362 78.2515C150.364 78.6596 150.365 78.8616 150.265 78.9609C150.166 79.0582 149.971 79.057 149.583 79.0547C149.51 79.0543 149.431 79.0538 149.344 79.0539H143.108H142.64C142.327 79.0275 142.27 78.973 142.248 78.6449C142.24 78.5205 142.242 78.3961 142.245 78.2717C142.246 78.2095 142.248 78.1473 142.248 78.0851L142.249 39.7068ZM202.084 25.8011V1.31922C202.084 0.411039 202.084 0.411038 202.975 0.409483H209.826C209.962 0.409483 210.1 0.409484 210.236 0.417259C210.606 0.446806 210.671 0.510565 210.69 0.883789C210.697 1.01822 210.695 1.15334 210.692 1.28869V1.28886V1.28903V1.28921V1.28938V1.28955L210.692 1.2919C210.691 1.35903 210.69 1.42621 210.69 1.49339V48.7777C210.67 51.4455 211.083 54.0989 211.912 56.6356C212.886 59.5629 214.529 62.2247 216.712 64.4111C218.355 66.0719 220.164 67.4809 222.286 68.4823C223.437 68.9958 224.631 69.4084 225.854 69.7155C226.323 69.8415 226.774 69.969 227.23 70.1105C227.542 70.2069 227.542 70.266 227.325 70.5242C227.277 70.5787 227.224 70.63 227.172 70.681C227.151 70.7013 227.13 70.7215 227.109 70.7419C226.644 71.2048 226.179 71.6674 225.713 72.1299C224.201 73.6331 222.688 75.1363 221.187 76.6513C220.858 76.9856 220.591 77.0727 220.127 76.8845C217.132 75.6866 214.363 73.9925 211.936 71.874C207.392 67.8971 204.416 62.9809 203.006 57.1255C202.564 55.2427 202.28 53.3263 202.158 51.3965C202.078 50.2498 202.079 49.1043 202.08 47.959L202.08 47.5834C202.078 40.3273 202.079 33.0665 202.084 25.8011ZM135.195 0.403165H131.106C130.697 0.403165 130.289 0.403926 129.88 0.404688C128.857 0.406592 127.834 0.408499 126.809 0.3985C126.65 0.38816 126.491 0.424299 126.352 0.50248C126.214 0.580661 126.101 0.69748 126.028 0.838591C125.175 2.20371 124.307 3.55479 123.441 4.90401L123.441 4.90446L123.441 4.90515L123.044 5.52255L112.775 21.5805C110.082 25.8031 107.379 30.021 104.667 34.2343C104.456 34.5687 104.44 34.8035 104.667 35.1441C105.84 36.9088 106.998 38.691 108.155 40.4715L108.703 41.3147C109.095 41.9087 109.101 41.9072 109.484 41.3147C112.286 36.9791 115.089 32.644 117.893 28.3094C119.717 25.503 121.539 22.6955 123.358 19.887C126.596 14.8848 129.835 9.88045 133.073 4.87407C133.932 3.54809 134.787 2.22107 135.64 0.89302C135.656 0.867701 135.675 0.841722 135.695 0.815178C135.771 0.712922 135.854 0.602278 135.78 0.488694C135.714 0.385755 135.602 0.393109 135.486 0.4007C135.441 0.403659 135.395 0.406655 135.351 0.403165H135.195ZM30.2024 66.9225V52.6529L30.1978 38.4891C30.1978 37.5296 30.1978 37.5296 29.2515 37.5296H8.41947C6.11694 37.5234 3.81337 37.5234 1.50876 37.5296C0.948217 37.5296 0.854532 37.64 0.918549 38.1516C1.21927 40.564 1.77938 42.9373 2.58924 45.2304C2.61436 45.302 2.63642 45.3669 2.65642 45.4257C2.74758 45.6937 2.79576 45.8354 2.89455 45.9101C3.00525 45.9938 3.17951 45.9934 3.54903 45.9926L3.66816 45.9925H21.3806C21.4379 45.9925 21.4951 45.9911 21.5522 45.9897C21.666 45.9869 21.7794 45.9842 21.8927 45.9925C22.2144 46.0142 22.2596 46.064 22.2815 46.3983V46.8058V51.4446C22.2877 55.9627 22.2877 60.4813 22.2815 65.0004C22.2799 65.3876 22.3315 65.6753 22.7655 65.8308C24.9254 66.6312 27.1591 67.2182 29.4342 67.5834C30.2024 67.7094 30.2024 67.6907 30.2024 66.9225ZM293.625 40.3568C293.658 40.3664 293.694 40.3657 293.728 40.3549C293.761 40.3441 293.79 40.3236 293.812 40.296C293.834 40.2685 293.847 40.2351 293.849 40.2002C293.852 40.1653 293.844 40.1305 293.826 40.1002C293.259 39.1839 292.968 38.1251 292.986 37.0491C292.977 36.0445 293.246 35.0569 293.764 34.1951C294.282 33.3332 295.029 32.6305 295.923 32.1645C295.953 32.1466 295.976 32.1204 295.991 32.0892C296.006 32.0579 296.011 32.023 296.006 31.9889C296.001 31.9547 295.986 31.9227 295.963 31.897C295.94 31.8712 295.91 31.8529 295.876 31.8442C284.426 28.6593 282.236 25.3423 282.236 20.0938C282.236 10.1148 294.34 9.03708 299.544 9.03708C310.317 9.03708 316.702 13.2032 318.51 21.4219L319.071 23.9707C319.079 24.01 319.101 24.0453 319.133 24.0705C319.164 24.0957 319.203 24.1093 319.244 24.1091H327.946C327.971 24.109 327.996 24.1034 328.019 24.0926C328.042 24.0819 328.063 24.0663 328.079 24.047C328.096 24.0276 328.108 24.0049 328.115 23.9805C328.121 23.9561 328.123 23.9304 328.119 23.9054L327.518 20.1498C326.567 14.2156 321.948 0.410951 299.664 0.410951C283.471 0.410951 273.008 8.21443 273.008 20.2929C273 32.488 282.226 37.2046 293.625 40.3568ZM303.491 33.7493C303.525 33.7373 303.561 33.7356 303.596 33.7445C322.067 38.318 329.018 44.7935 329.012 57.0865C329.012 63.8356 326.156 69.4775 320.752 73.3979C315.656 77.096 308.438 79.0492 299.876 79.0492C283.06 79.0492 271.846 71.0653 269.117 57.1456L268.36 53.2796C268.355 53.2541 268.355 53.2278 268.362 53.2026C268.368 53.1774 268.38 53.1539 268.397 53.1338C268.413 53.1137 268.434 53.0976 268.458 53.0865C268.481 53.0754 268.507 53.0697 268.533 53.0697H277.505C277.545 53.0699 277.584 53.0839 277.616 53.1094C277.647 53.1349 277.668 53.1703 277.677 53.2097L278.217 55.7927C280.884 68.5227 293.006 70.423 299.995 70.423C312.385 70.423 319.783 65.512 319.783 57.284C319.783 50.129 317.169 46.3315 301.503 42.3395C301.469 42.3318 301.438 42.3142 301.414 42.289C301.39 42.2637 301.374 42.2319 301.368 42.1976C301.363 42.1632 301.367 42.128 301.381 42.0962C301.396 42.0645 301.419 42.0376 301.449 42.0192C302.33 41.5203 303.063 40.798 303.573 39.9255C304.082 39.053 304.351 38.0617 304.351 37.0522C304.345 35.9667 304.014 34.9077 303.401 34.0104C303.382 33.9804 303.372 33.9454 303.373 33.9099C303.375 33.8745 303.387 33.8402 303.408 33.8116C303.429 33.7829 303.458 33.7612 303.491 33.7493Z" fill="white"/>
</svg>
