<svg width="372" height="90" viewBox="0 0 372 90" fill="none" xmlns="http://www.w3.org/2000/svg">
<g clip-path="url(#clip0_18519_63749)">
<path d="M336.957 46.0005C336.438 46.0143 335.923 45.9225 335.441 45.7306C334.96 45.5388 334.522 45.2509 334.156 44.8845C333.789 44.5181 333.5 44.0809 333.308 43.5995C333.116 43.1181 333.024 42.6026 333.037 42.0844C333.06 39.6115 335.095 38.2214 336.957 38.1984C338.863 38.179 340.86 39.7881 340.878 42.0844C340.896 44.3807 338.873 46.1312 336.957 46.0005Z" fill="white"/>
<path d="M160.014 45.1012V1.56903C160.014 0.394393 159.954 0.480944 161.123 0.480944C171.86 0.480944 182.599 0.480944 193.338 0.480944C197.223 0.442911 201.078 1.15234 204.694 2.57056C207.474 3.68505 210.047 5.25575 212.309 7.21788C214.869 9.41701 216.967 11.9871 218.474 15.0058C219.786 17.6547 220.612 20.5184 220.91 23.4596C221.058 24.7412 221.127 26.0308 221.114 27.3209C220.994 33.2983 219.237 38.6963 215.351 43.3083C211.686 47.6589 207.121 50.6423 201.61 52.1402C200.824 52.3539 200.819 52.3539 201.246 53.0658C206.524 61.8552 211.802 70.6447 217.08 79.4341C219.015 82.6548 220.953 85.8743 222.893 89.0926C222.923 89.1421 222.953 89.1898 222.982 89.241C223.238 89.7126 223.193 89.8027 222.646 89.8027C219.426 89.8027 216.207 89.8027 212.987 89.8133C212.578 89.8133 212.367 89.6367 212.171 89.3028C209.854 85.4168 207.53 81.5308 205.201 77.6448C201.301 71.1304 197.402 64.6155 193.503 58.0999C192.651 56.678 191.784 55.2649 190.968 53.8235C190.685 53.3254 190.36 53.1399 189.779 53.1435C185.462 53.1682 181.143 53.1576 176.825 53.1558C175.88 53.1558 175.881 53.1558 175.878 52.1932C175.878 50.4586 175.878 48.724 175.855 46.9894C175.855 46.2829 175.744 45.5764 175.775 44.8539C175.775 44.7002 175.775 44.5466 175.8 44.3929C175.804 44.3146 175.838 44.2411 175.896 44.1877C175.953 44.1343 176.029 44.1053 176.107 44.1067C176.319 44.0944 176.531 44.0926 176.743 44.0926C182.219 44.0926 187.695 44.1173 193.171 44.082C196.262 44.0626 199.273 43.5645 202.107 42.2467C203.558 41.5705 204.906 40.6915 206.111 39.6361C207.28 38.625 208.31 37.4625 209.172 36.1793C210.454 34.2888 211.277 32.1244 211.573 29.8592C211.975 26.7663 211.871 23.7052 210.795 20.7341C209.869 18.2054 208.301 15.9611 206.245 14.2215C204.111 12.3621 201.57 11.0308 198.826 10.3355C197.686 10.0498 196.526 9.85199 195.355 9.74379C194.181 9.62897 193.008 9.6484 191.833 9.64664C184.604 9.64664 177.374 9.64664 170.144 9.64664C169.143 9.64664 169.19 9.61307 169.19 10.5881C169.19 36.6032 169.19 62.6189 169.19 88.6351C169.19 89.8999 169.284 89.7921 168.04 89.7939H160.985C160.809 89.7939 160.632 89.7939 160.456 89.7939C160.102 89.7638 160.037 89.702 160.012 89.3293C159.998 89.1174 160.012 88.9054 160.012 88.6934L160.014 45.1012Z" fill="white"/>
<path d="M254.402 89.0679C254.962 88.5786 255.478 88.1194 256.003 87.6725C258.771 85.3056 261.547 82.9475 264.114 80.358C264.312 80.1463 264.58 80.0123 264.868 79.98C266.343 79.8102 267.801 79.5147 269.226 79.0968C272.253 78.2087 275.039 76.6437 277.372 74.5201C279.228 72.86 280.835 70.9401 282.141 68.82C283.791 66.0668 284.872 63.0108 285.321 59.8327C285.555 58.2704 285.673 56.6928 285.674 55.113C285.674 37.2644 285.674 19.4165 285.674 1.56906C285.674 0.523373 285.524 0.458017 286.782 0.461549C289.346 0.461549 291.904 0.461549 294.476 0.461549C294.63 0.461549 294.785 0.461549 294.939 0.461549C295.426 0.488045 295.5 0.562234 295.522 1.04799C295.522 1.22462 295.522 1.40126 295.522 1.5673C295.522 19.5843 295.522 37.6054 295.522 55.6306C295.522 59.6632 294.972 63.6234 293.676 67.4652C292.384 71.356 290.331 74.9505 287.635 78.0387C285.648 80.3085 283.473 82.3769 280.974 84.085C278.197 85.9796 275.138 87.4229 271.911 88.3614C269.741 88.9832 267.519 89.4018 265.273 89.612C263.276 89.7967 261.269 89.8333 259.267 89.7215C257.788 89.6491 256.317 89.4247 254.851 89.2675C254.681 89.263 254.52 89.1912 254.402 89.0679Z" fill="white"/>
<path d="M117.812 71.8515V88.8475C117.812 89.7713 117.812 89.7731 116.892 89.7731H109.664C109.508 89.7731 109.355 89.7731 109.201 89.7731C108.848 89.743 108.779 89.6812 108.754 89.3121C108.74 89.1001 108.754 88.8881 108.754 88.6762C108.754 77.7494 108.754 66.8238 108.754 55.8994C108.768 55.3249 108.608 54.7596 108.295 54.2779C105.393 49.7525 102.508 45.2188 99.6397 40.6769C96.0115 34.9679 92.384 29.2596 88.7571 23.5519L77.8745 6.41812C76.7687 4.67766 75.6641 2.9372 74.5607 1.19673C74.4424 1.0095 74.2075 0.811665 74.3099 0.587336C74.4124 0.363007 74.7268 0.463691 74.9458 0.463691C78.0299 0.463691 81.114 0.463691 84.1981 0.44956C84.406 0.433637 84.6141 0.478818 84.7967 0.57955C84.9794 0.680281 85.1286 0.832173 85.2261 1.01656C87.0984 3.98053 88.992 6.93213 90.8785 9.88727C93.8153 14.4798 96.7528 19.0724 99.6909 23.665C101.945 27.1871 104.199 30.7081 106.454 34.2278C109.255 38.6108 112.053 42.9973 114.848 47.3873C115.506 48.3614 116.106 49.3729 116.646 50.4166C117.419 51.9765 117.819 53.6942 117.816 55.4349C117.805 60.9071 117.804 66.3793 117.812 71.8515Z" fill="white"/>
<path d="M227.702 29.3061V1.49817C227.702 0.466611 227.702 0.46661 228.711 0.464844H236.462C236.615 0.464844 236.771 0.464844 236.924 0.473676C237.343 0.507237 237.417 0.579658 237.439 1.00359C237.451 1.23321 237.439 1.46461 237.439 1.696C237.439 19.5952 237.439 37.498 237.439 55.4042C237.416 58.4344 237.883 61.4484 238.822 64.3297C239.923 67.6546 241.781 70.6781 244.251 73.1615C246.11 75.048 248.157 76.6484 250.557 77.7859C251.86 78.3691 253.21 78.8377 254.593 79.1866C255.123 79.3297 255.634 79.4745 256.15 79.6353C256.503 79.7448 256.503 79.8119 256.257 80.1051C256.181 80.1917 256.095 80.2712 256.014 80.3524C253.777 82.5869 251.534 84.8143 249.314 87.0646C248.941 87.4444 248.639 87.5433 248.114 87.3296C244.727 85.9689 241.594 84.0446 238.848 81.6383C233.708 77.1211 230.341 71.5371 228.746 64.8861C228.246 62.7475 227.925 60.5708 227.787 58.3788C227.686 56.9339 227.699 55.4908 227.699 54.0477C227.696 45.8058 227.698 37.5586 227.702 29.3061Z" fill="white"/>
<path d="M147.407 0.458201H152.033C152.091 0.458201 152.15 0.458201 152.21 0.458201C152.386 0.472332 152.591 0.392843 152.695 0.555349C152.8 0.717855 152.625 0.875063 152.536 1.01461C151.572 2.52309 150.604 4.03039 149.632 5.53651C145.969 11.223 142.306 16.9072 138.642 22.589C136.584 25.7791 134.523 28.968 132.46 32.1557C129.287 37.0792 126.116 42.0032 122.946 46.9278C122.513 47.6008 122.506 47.6026 122.063 46.9278C120.547 44.5874 119.034 42.2399 117.497 39.9189C117.241 39.5321 117.258 39.2653 117.497 38.8856C120.566 34.0999 123.623 29.3089 126.67 24.5126L138.287 6.27309C139.416 4.50672 140.55 2.74035 141.663 0.952782C141.745 0.792501 141.873 0.659812 142.03 0.571009C142.186 0.482206 142.366 0.441158 142.546 0.452902C144.169 0.4688 145.789 0.458201 147.407 0.458201Z" fill="white"/>
<path d="M0.190451 33.5598C0.677552 29.823 1.71195 26.1782 3.2604 22.7426C4.59005 19.7828 6.2957 17.0067 8.33518 14.483C14.1524 7.22183 22.3956 2.30492 31.5488 0.636454C33.049 0.370291 34.5627 0.1869 36.0831 0.0871129C37.2224 0.00939268 38.3599 -0.0206362 39.4957 0.0146911C43.6119 0.127468 47.6843 0.891159 51.5618 2.27741C54.3268 3.26681 56.9689 4.57071 59.4362 6.16342C61.1352 7.26887 62.7473 8.50244 64.2584 9.85337C71.07 15.9232 75.5009 24.2177 76.759 33.2542C76.9074 34.284 76.9957 35.3209 77.0593 36.363C77.1176 37.2868 77.1653 38.2107 77.1441 39.1362C77.0257 44.2852 76.0154 49.2434 73.9646 53.9737C71.6143 59.3983 68.0486 64.2101 63.543 68.0376C63.4084 68.1511 63.3196 68.3097 63.2929 68.4838C63.2663 68.6579 63.3037 68.8357 63.3982 68.9843C65.6356 72.4782 67.873 75.9721 70.1104 79.466L76.4693 89.4142C76.5138 89.4768 76.5551 89.5416 76.593 89.6085C76.7361 89.8805 76.7007 89.9617 76.4163 89.9847C76.281 89.9918 76.1454 89.9918 76.0101 89.9847C72.6911 89.9847 69.3703 89.9741 66.0495 89.9953C65.8237 90.0157 65.5969 89.9692 65.3974 89.8614C65.1979 89.7537 65.0346 89.5895 64.9279 89.3894C61.7013 84.3082 58.463 79.234 55.2129 74.1669C55.1722 74.1015 55.1245 74.0397 55.0874 73.9726C54.9426 73.6952 54.7448 73.667 54.4639 73.7959C53.6655 74.1386 52.8742 74.4813 52.0546 74.7869C49.2871 75.8251 46.4088 76.5399 43.4771 76.9171C42.4173 77.0514 41.3575 77.0937 40.3118 77.2192C40.2535 77.2192 40.1952 77.2192 40.1351 77.2192C39.5699 77.2192 39.4939 77.1644 39.4869 76.6062C39.4745 75.4457 39.4992 74.287 39.471 73.1282C39.4409 71.7999 39.3826 70.4681 39.471 69.1415C39.4869 68.9119 39.471 68.6788 39.4816 68.4474C39.4899 68.3206 39.5427 68.2009 39.6305 68.1091C39.7184 68.0174 39.8358 67.9595 39.962 67.9457C40.6332 67.8751 41.3045 67.8115 41.9757 67.7373C44.6052 67.4251 47.179 66.751 49.6241 65.7342C49.8343 65.6494 50.0798 65.4339 50.2653 65.5576C50.5055 65.7236 50.3023 66.0257 50.2653 66.2518C49.7353 69.0232 51.4805 72.6761 55.1422 73.4056C58.8798 74.1492 62.2748 71.6569 62.8383 68.1771C63.407 64.6673 61.1743 61.9083 58.2457 61.0728C58.0496 61.0163 57.8165 61.0374 57.6787 60.8255C57.7246 60.5941 57.9207 60.4828 58.0744 60.3468C63.2817 55.6404 66.6206 49.2165 67.4803 42.2503C68.2363 36.1899 67.1535 30.3892 64.3008 24.8657C63.5148 23.3434 62.58 21.9027 61.51 20.5646C57.0552 15.0006 51.4387 11.4578 44.6606 9.93639C38.3309 8.53313 31.7148 9.26543 25.8452 12.0189C20.4345 14.5519 15.9273 18.6782 12.9277 23.8448C11.116 26.9495 9.89598 30.3633 9.32965 33.9131C9.2219 34.579 9.15301 35.2502 9.05939 35.9197C8.9905 36.4355 8.96224 36.4708 8.44999 36.4743C7.17644 36.4832 5.90289 36.4743 4.62934 36.4743H0.432443C0.372744 36.4745 0.313656 36.4623 0.258921 36.4385C0.204187 36.4146 0.155002 36.3797 0.114482 36.3359C0.073962 36.292 0.0429904 36.2402 0.023533 36.1838C0.0040756 36.1274 -0.00344299 36.0675 0.00145069 36.008L0.190451 33.5598Z" fill="white"/>
<path d="M56.5558 71.1112C56.0369 71.1251 55.5206 71.0331 55.0384 70.841C54.5562 70.6489 54.1181 70.3606 53.7509 69.9937C53.3837 69.6269 53.095 69.1891 52.9025 68.707C52.7099 68.225 52.6175 67.7088 52.6309 67.1899C52.6556 64.717 54.6923 63.3215 56.5575 63.3039C58.4652 63.2845 60.463 64.8936 60.4806 67.1899C60.4983 69.4862 58.4688 71.242 56.5558 71.1112Z" fill="white"/>
<path d="M33.2559 59.8063V76.0145C33.2559 76.8871 33.2559 76.9083 32.3869 76.7652C29.813 76.3503 27.2861 75.6836 24.8427 74.7745C24.3516 74.5979 24.2934 74.2711 24.2951 73.8313C24.3022 68.6982 24.3022 63.5657 24.2951 58.4338C24.2951 56.6781 24.2951 54.9217 24.2951 53.1647C24.2951 53.0111 24.2951 52.8556 24.2951 52.702C24.2704 52.3222 24.2192 52.2657 23.8553 52.2409C23.6628 52.2268 23.4702 52.2409 23.2759 52.2409H3.23825C2.22082 52.2409 2.33563 52.2851 2.01769 51.3754C1.10152 48.7707 0.467869 46.075 0.127668 43.3349C0.0552463 42.7538 0.161231 42.6283 0.795358 42.6283C3.40252 42.6213 6.0085 42.6213 8.61331 42.6283H32.1802C33.2506 42.6283 33.2506 42.6283 33.2506 43.7182L33.2559 59.8063Z" fill="url(#paint0_linear_18519_63749)"/>
<path d="M331.261 45.8395C331.299 45.8504 331.34 45.8497 331.378 45.8374C331.415 45.8251 331.449 45.8018 331.473 45.7705C331.498 45.7392 331.512 45.7013 331.515 45.6617C331.518 45.6221 331.509 45.5825 331.489 45.5481C330.848 44.5073 330.518 43.3047 330.539 42.0825C330.528 40.9414 330.833 39.8197 331.419 38.8407C332.005 37.8618 332.85 37.0636 333.861 36.5343C333.895 36.514 333.922 36.4842 333.938 36.4487C333.955 36.4132 333.961 36.3736 333.955 36.3348C333.95 36.296 333.933 36.2597 333.906 36.2304C333.88 36.2012 333.846 36.1803 333.808 36.1704C320.855 32.5529 318.377 28.7852 318.377 22.8237C318.377 11.4889 332.07 10.2648 337.957 10.2648C350.145 10.2648 357.368 14.997 359.413 24.3322L360.048 27.2273C360.057 27.272 360.082 27.312 360.118 27.3406C360.153 27.3692 360.198 27.3847 360.244 27.3845H370.088C370.116 27.3844 370.145 27.378 370.171 27.3658C370.197 27.3536 370.22 27.3359 370.239 27.3139C370.258 27.2919 370.271 27.2662 370.279 27.2384C370.287 27.2107 370.288 27.1816 370.284 27.1531L369.604 22.8873C368.528 16.1469 363.303 0.466797 338.093 0.466797C319.774 0.466797 307.938 9.33044 307.938 23.0498C307.929 36.9017 318.367 42.2591 331.261 45.8395Z" fill="white"/>
<path d="M342.541 38.3289C342.502 38.3188 342.461 38.3207 342.423 38.3343C342.385 38.3479 342.352 38.3725 342.328 38.405C342.304 38.4376 342.291 38.4765 342.29 38.5168C342.288 38.557 342.299 38.5968 342.32 38.6309C343.014 39.6501 343.389 40.853 343.396 42.0859C343.396 43.2326 343.092 44.3586 342.515 45.3496C341.938 46.3406 341.109 47.1611 340.112 47.7277C340.079 47.7487 340.052 47.7792 340.036 47.8152C340.02 47.8513 340.015 47.8914 340.021 47.9304C340.028 47.9693 340.046 48.0055 340.073 48.0342C340.1 48.0629 340.136 48.0829 340.174 48.0916C357.896 52.6259 360.853 56.9393 360.853 65.0664C360.853 74.4123 352.484 79.9905 338.468 79.9905C330.562 79.9905 316.847 77.832 313.83 63.3725L313.219 60.4385C313.21 60.3938 313.186 60.3536 313.15 60.3247C313.115 60.2957 313.071 60.2798 313.025 60.2795H302.875C302.846 60.2795 302.817 60.286 302.79 60.2986C302.763 60.3112 302.74 60.3296 302.721 60.3524C302.702 60.3752 302.689 60.4019 302.682 60.4305C302.674 60.4592 302.674 60.489 302.679 60.518L303.536 64.9092C306.624 80.72 319.31 89.7885 338.334 89.7885C348.019 89.7885 356.184 87.57 361.95 83.3695C368.063 78.9165 371.294 72.5081 371.294 64.8421C371.301 50.8789 363.437 43.5238 342.541 38.3289Z" fill="white"/>
</g>
<defs>
<linearGradient id="paint0_linear_18519_63749" x1="0.0809787" y1="42.623" x2="35.5882" y2="45.2779" gradientUnits="userSpaceOnUse">
<stop stop-color="#46DF93"/>
<stop offset="1" stop-color="#CFF242"/>
</linearGradient>
<clipPath id="clip0_18519_63749">
<rect width="372" height="90" fill="white"/>
</clipPath>
</defs>
</svg>
