<svg width="102" height="31" viewBox="0 0 102 31" fill="none" xmlns="http://www.w3.org/2000/svg">
<path d="M83.0949 8.68642C80.378 8.68642 77.4498 9.19193 75.4327 10.018L76.2148 15.5348C77.7379 14.8267 80.1645 14.2666 82.0169 14.2666C84.1163 14.2666 85.2403 14.9335 85.2403 16.5071C85.2403 16.6251 85.2389 17.0543 85.198 17.4477C76.8416 17.4477 73.6572 19.0229 73.6572 23.7042C73.6572 27.8348 76.2161 30.2038 80.5796 30.2038C82.432 30.2038 84.1644 30.2203 85.811 28.8828H86.0118L86.3288 30.2038H91.983C91.1079 28.6459 91.0251 25.2613 91.0529 23.3026C91.0882 20.8234 91.2854 17.9292 91.2854 15.8835C91.2854 10.5728 87.4995 8.68642 83.0949 8.68642ZM85.1029 21.6856L85.1346 22.2141C85.1953 23.178 84.9048 24.0062 84.2468 24.6871C83.5882 25.3591 82.7437 25.7239 81.721 25.7756C80.9007 25.8171 80.2422 25.676 79.7552 25.3635C79.2778 25.0416 79.0322 24.5803 78.9943 23.979C78.953 23.3246 79.1988 22.8218 79.7446 22.4571C80.3007 22.0919 81.1469 21.8804 82.2811 21.823L85.1029 21.6856Z" fill="#1A2326"/>
<path d="M59.0898 14.4991V8.69292H54.1428V1.61918L47.429 4.19517V8.69292H44.293V14.4991H47.429V21.0822C47.429 25.0893 48.7983 29.9959 56.6605 30.2004L58.6923 24.4351C55.4237 24.0671 54.1428 22.8404 54.1428 19.4466V14.4991H59.0898Z" fill="#1A2326"/>
<path d="M0.259766 8.70491L5.03145 30.1988H10.6134C9.19428 22.7234 7.99952 16.3707 6.54913 8.70491H0.259766ZM12.1182 8.70491L10.9092 13.0888L13.07 24.5514L15.2565 16.6604L19.025 30.1988H25.5073L30.2404 8.70491H23.9767L21.7131 20.709L18.3947 8.70491H12.1182Z" fill="#1A2326"/>
<path d="M40.3319 3.56739C40.3319 5.42135 38.829 6.92428 36.9751 6.92428C35.1211 6.92428 33.6182 5.42135 33.6182 3.56739C33.6182 1.71344 35.1211 0.21051 36.9751 0.21051C38.829 0.21051 40.3319 1.71344 40.3319 3.56739Z" fill="#1A2326"/>
<path d="M69.4843 26.8536C69.4843 28.7076 67.9814 30.2105 66.1274 30.2105C64.2734 30.2105 62.7705 28.7076 62.7705 26.8536C62.7705 24.9997 64.2734 23.4967 66.1274 23.4967C67.9814 23.4967 69.4843 24.9997 69.4843 26.8536Z" fill="#1A2326"/>
<path d="M101.74 3.56739C101.74 5.42135 100.237 6.92428 98.3832 6.92428C96.5293 6.92428 95.0264 5.42135 95.0264 3.56739C95.0264 1.71344 96.5293 0.21051 98.3832 0.21051C100.237 0.21051 101.74 1.71344 101.74 3.56739Z" fill="#1A2326"/>
<path d="M40.332 8.71796H33.6182V30.2023H40.332V8.71796Z" fill="#1A2326"/>
<path d="M101.74 8.81969H95.0264V30.2023H101.74V8.81969Z" fill="#1A2326"/>
</svg>
